<?xml version="1.0" standalone="no"?>
<svg viewBox="0 0 200 200" xmlns="http://www.w3.org/2000/svg">
  <path fill="#EEEFEB" d="M48.1,-67.7C60.3,-67.1,66.6,-50.2,70.1,-34.4C73.7,-18.6,74.6,-3.9,72.1,10C69.5,23.9,63.6,36.9,55.2,49.3C46.7,61.6,35.8,73.2,23,75.8C10.2,78.4,-4.5,72,-19,66.8C-33.6,61.7,-47.9,57.8,-54.8,48.3C-61.7,38.8,-61.3,23.8,-63.5,9.1C-65.7,-5.7,-70.6,-20.1,-66.8,-31.4C-63,-42.7,-50.4,-50.8,-37.9,-51.3C-25.3,-51.7,-12.6,-44.4,2.7,-48.5C18,-52.7,36,-68.3,48.1,-67.7Z" transform="translate(100 100)" />
</svg>
