<svg version="1.1" id="Layer_1" xmlns="http://www.w3.org/2000/svg" xmlns:xlink="http://www.w3.org/1999/xlink" x="0px" y="0px"
	 width="100%" viewBox="0 0 1721 1739" enable-background="new 0 0 1721 1739" xml:space="preserve">
<path fill="#FFFFFF" opacity="1.000000" stroke="none" 
	d="
M1722.000000,647.000000 
	C1722.000000,1010.166565 1721.993164,1372.833130 1722.092896,1735.499634 
	C1722.093994,1739.247803 1721.250244,1740.093506 1717.500366,1740.092773 
	C1146.833862,1739.995605 576.167358,1739.995728 5.500853,1740.092651 
	C1.753906,1740.093384 0.906437,1739.251953 0.907069,1735.500854 
	C1.004248,1158.834351 1.004235,582.167847 0.907469,5.501371 
	C0.906840,1.755677 1.746264,0.906328 5.498657,0.906968 
	C576.165161,1.004322 1146.831665,1.004286 1717.498169,0.907552 
	C1721.242676,0.906917 1722.095703,1.744326 1722.093872,5.498175 
	C1721.988525,219.165421 1722.000000,432.832703 1722.000000,647.000000 
z"/>
<path fill="#5A5A5A" opacity="1.000000" stroke="none" 
	d="
M1696.906006,948.912354 
	C1682.937988,1096.177734 1635.790283,1231.316528 1551.366577,1352.337036 
	C1427.553589,1529.821533 1260.184082,1644.845337 1049.468994,1695.648193 
	C975.206482,1713.552612 899.626038,1720.502075 823.357422,1716.644287 
	C616.049805,1706.158325 435.687378,1630.710693 284.234039,1488.610718 
	C160.169662,1372.208252 79.432274,1230.194336 40.333382,1064.632935 
	C29.100372,1017.067505 22.265324,968.806213 19.820940,919.959106 
	C10.406360,731.824158 55.886913,558.118896 161.141220,401.803864 
	C282.328613,221.826355 449.158478,104.901627 659.771851,51.381840 
	C709.250854,38.808544 759.659485,31.757010 810.659973,28.762100 
	C857.192139,26.029581 903.624329,27.008183 949.900513,32.205582 
	C1107.509155,49.906982 1249.489014,106.771904 1374.477905,204.505234 
	C1499.422852,302.204254 1590.141846,425.515472 1646.279053,574.010498 
	C1668.483032,632.744324 1683.549194,693.302673 1692.218872,755.502563 
	C1700.021362,811.481262 1701.856812,867.655273 1698.786865,924.034607 
	C1698.343140,932.182434 1697.559814,940.311829 1696.906006,948.912354 
z"/>
<path fill="#FFFFFF" opacity="1.000000" stroke="none" 
	d="
M692.879089,577.893188 
	C604.092163,630.727295 549.276306,707.414307 528.362061,808.241211 
	C525.688599,821.129578 524.049683,834.209839 523.282654,847.343933 
	C523.045044,851.411682 521.688354,852.073975 518.039307,852.070862 
	C411.709564,851.980713 305.379791,851.998169 199.049988,851.998047 
	C154.384811,851.998047 109.719284,851.919312 65.054970,852.115845 
	C60.496368,852.135864 59.646332,850.889648 59.802460,846.588135 
	C65.560997,687.935669 112.609695,542.755737 203.301804,412.389252 
	C289.101898,289.054871 400.976624,196.664780 538.474548,135.695847 
	C600.068298,108.384125 664.237244,89.646011 730.744385,78.782043 
	C786.033936,69.750473 841.671082,66.204285 897.566589,69.258209 
	C1078.492798,79.143318 1238.832764,141.847198 1376.832886,259.475739 
	C1494.970215,360.173645 1576.988647,485.208099 1623.253174,633.499695 
	C1639.360474,685.127991 1649.894653,737.904480 1655.212891,791.737000 
	C1657.031982,810.150879 1658.064575,828.601868 1658.998413,847.070374 
	C1659.187744,850.812866 1658.439453,852.101440 1654.297241,852.098206 
	C1502.969116,851.978333 1351.640747,851.980103 1200.312622,852.098877 
	C1196.510376,852.101807 1195.628174,850.915955 1195.380493,847.440430 
	C1192.889648,812.495483 1185.733154,778.494263 1172.033691,746.239380 
	C1125.420410,636.490479 1044.339722,566.746704 927.631165,541.169922 
	C845.321167,523.131653 766.842651,536.640015 692.879089,577.893188 
z"/>
<path fill="#FFFFFF" opacity="1.000000" stroke="none" 
	d="
M784.392700,1202.592773 
	C810.260132,1208.321655 836.025146,1211.801270 862.105774,1210.917358 
	C992.106079,1206.512573 1089.731445,1147.490112 1154.725098,1035.186157 
	C1178.800415,993.585999 1191.398438,947.963257 1195.159912,899.988586 
	C1195.707642,893.002014 1195.728882,893.002747 1202.866455,893.002747 
	C1352.196655,893.002563 1501.526855,893.002747 1650.857056,893.002563 
	C1659.130615,893.002563 1659.200806,893.004578 1658.840942,901.484497 
	C1651.968018,1063.437744 1602.984985,1211.261108 1507.952393,1342.809448 
	C1405.941895,1484.016968 1271.944702,1582.477905 1106.309937,1637.275635 
	C1055.445190,1654.103638 1003.284119,1665.137695 950.044128,1671.257324 
	C902.556824,1676.715820 854.955261,1678.034180 807.322510,1674.748047 
	C657.482056,1664.410767 520.370605,1617.021973 398.318268,1529.328369 
	C233.760742,1411.095337 127.776741,1252.750244 80.380821,1055.590088 
	C67.971313,1003.968384 61.474388,951.463989 59.793751,898.369690 
	C59.655205,893.992676 60.624073,892.889038 65.097061,892.892944 
	C216.093781,893.024658 367.090637,893.015991 518.087402,892.924255 
	C521.803284,892.921997 522.979492,893.714233 523.278259,897.685974 
	C533.785095,1037.362061 627.555664,1154.967285 761.351685,1196.392212 
	C768.810364,1198.701538 776.442444,1200.450806 784.392700,1202.592773 
z"/>
<path fill="#FEFEFE" opacity="1.000000" stroke="none" 
	d="
M626.191284,1055.800049 
	C587.511108,1005.448181 566.745056,948.897095 563.707581,885.817688 
	C556.733704,740.993286 655.759216,611.971436 797.486206,581.278198 
	C951.824463,547.853760 1107.160156,644.246338 1145.905396,797.487488 
	C1182.738525,943.164917 1108.202881,1092.251587 970.541016,1148.252808 
	C848.052185,1198.081421 708.204956,1160.624634 626.191284,1055.800049 
z"/>
<path fill="#5B5B5B" opacity="1.000000" stroke="none" 
	d="
M690.709717,769.711914 
	C723.307556,718.292236 769.274048,687.186218 828.971008,677.345764 
	C933.068848,660.186340 1033.679932,731.232971 1053.145996,835.096375 
	C1073.127075,941.708740 1005.531128,1043.272705 899.656982,1065.716309 
	C792.894470,1088.348145 686.960693,1018.448975 665.886108,911.272034 
	C656.022400,861.108826 664.465210,813.993591 690.709717,769.711914 
z"/>
<path fill="#FFFFFF" opacity="1.000000" stroke="none" 
	d="
M706.389526,784.437988 
	C736.655701,734.414307 780.354736,704.619812 837.985352,697.416321 
	C929.295105,686.003235 1010.992432,745.954407 1030.941895,831.834290 
	C1053.804443,930.255249 992.050842,1025.428223 892.660217,1045.667725 
	C800.029480,1064.530884 705.816711,1002.208618 686.929077,909.678467 
	C677.935913,865.621643 684.343872,824.012207 706.389526,784.437988 
z"/>
</svg>